<?xml version="1.0" standalone="no"?>
<!DOCTYPE svg PUBLIC "-//W3C//DTD SVG 20010904//EN"
 "http://www.w3.org/TR/2001/REC-SVG-20010904/DTD/svg10.dtd">
<svg version="1.0" xmlns="http://www.w3.org/2000/svg"
 width="460.000000pt" height="460.000000pt" viewBox="0 0 460.000000 460.000000"
 preserveAspectRatio="xMidYMid meet">
<metadata>
Created by potrace 1.14, written by Peter Selinger 2001-2017
</metadata>
<g transform="translate(0.000000,460.000000) scale(0.100000,-0.100000)"
fill="#000000" stroke="none">
<path d="M0 4171 l0 -428 37 -7 c21 -3 51 -6 66 -6 l29 0 -7 -224 c-4 -150 -2
-276 7 -378 21 -252 12 -459 -23 -488 -45 -37 -72 -244 -49 -371 5 -30 12 -74
14 -98 2 -23 13 -62 25 -85 11 -22 22 -49 25 -59 4 -12 16 -17 44 -17 25 0 46
-7 61 -22 21 -19 23 -27 17 -75 -6 -52 -5 -54 16 -51 15 2 22 9 22 21 -3 32
14 18 20 -18 4 -19 11 -35 16 -35 15 0 12 -17 -5 -34 -8 -8 -15 -21 -15 -29 0
-19 -72 -29 -110 -16 -15 6 -63 11 -106 12 l-79 2 -3 -883 -2 -882 2300 0
2300 0 0 450 0 451 -682 -1 c-376 0 -720 0 -766 0 -46 0 -81 4 -78 9 3 5 27
19 53 31 27 12 69 39 95 61 26 21 50 39 53 39 4 0 24 13 45 30 21 16 46 30 55
30 10 0 33 10 53 22 l34 21 -4 71 c-7 97 -63 231 -93 220 -10 -4 -14 -24 -14
-65 0 -32 -2 -63 -5 -68 -8 -12 -75 21 -103 51 -19 20 -23 39 -27 112 -3 49
-8 91 -11 94 -11 11 -4 20 24 30 29 10 30 9 34 -21 4 -28 5 -27 5 8 0 86 2 93
22 98 21 5 36 -8 41 -37 6 -32 29 -31 29 2 0 32 29 65 51 57 18 -7 59 64 59
102 0 16 5 34 11 40 9 9 8 22 -5 53 -22 55 -20 92 8 213 14 56 28 134 31 172
4 42 20 103 40 155 28 72 35 104 42 215 5 72 8 157 5 190 -2 33 2 83 9 112 9
41 10 65 1 106 -7 28 -14 140 -16 247 -6 220 -9 250 -36 334 -33 100 -49 92
192 99 116 4 354 7 530 7 l318 0 0 430 0 430 -2300 0 -2300 0 0 -429z m3394
123 c7 -19 6 -172 -3 -309 -6 -98 -6 -100 -31 -100 l-25 0 -3 190 c-1 105 0
200 3 213 6 26 49 31 59 6z m144 -179 c3 -204 -3 -239 -42 -233 -20 3 -21 10
-24 193 -3 225 -1 237 36 233 l27 -3 3 -190z m-1290 125 c-2 -20 -9 -26 -35
-28 -25 -3 -33 1 -38 19 -11 33 28 64 56 46 13 -8 19 -21 17 -37z m682 1 c5
-11 10 -31 10 -45 0 -21 5 -25 38 -28 32 -3 37 -7 40 -30 3 -25 0 -28 -37 -34
l-41 -7 0 -107 c0 -90 -3 -109 -16 -114 -35 -13 -44 12 -44 120 0 96 -1 104
-20 104 -27 0 -70 21 -70 35 0 20 24 35 57 35 30 0 33 2 27 24 -12 50 33 88
56 47z m-170 -56 c19 -23 18 -85 -2 -98 -13 -9 -22 -7 -38 8 -16 15 -26 17
-47 9 -40 -14 -38 -31 3 -39 78 -14 120 -100 77 -154 -38 -47 -161 -47 -201 0
-17 20 -17 20 -22 -2 -7 -30 -36 -47 -51 -32 -7 7 -15 59 -19 117 -3 58 -10
109 -14 113 -12 12 -65 -57 -77 -99 -5 -21 -9 -52 -7 -71 2 -40 -7 -57 -33
-57 -35 0 -42 38 -33 166 8 97 12 119 27 128 15 9 22 7 33 -10 15 -21 15 -21
53 -2 31 15 43 17 64 7 35 -16 47 -49 47 -129 0 -37 3 -76 6 -85 6 -14 8 -14
25 1 16 14 24 15 45 6 32 -15 91 -15 100 0 10 16 -20 35 -67 43 -52 9 -76 49
-59 99 11 34 28 46 95 67 22 7 44 17 50 21 14 12 31 10 45 -7z m-1633 -25 c5
-19 23 -29 23 -12 0 4 14 13 32 20 39 14 77 -1 94 -38 7 -14 14 -74 15 -134 4
-94 2 -110 -13 -120 -33 -21 -49 12 -54 115 -7 125 -9 128 -40 98 -37 -34 -53
-76 -56 -144 -2 -48 -6 -60 -21 -63 -40 -8 -47 14 -47 147 0 85 4 131 12 139
19 19 49 14 55 -8z m261 8 c7 -7 35 -11 64 -10 81 3 108 -31 109 -132 1 -96
-39 -146 -117 -146 l-44 0 0 -65 c0 -36 -2 -65 -4 -65 -2 0 -11 -3 -19 -6 -8
-3 -22 2 -31 11 -14 14 -16 45 -16 214 0 109 3 201 7 204 10 11 38 8 51 -5z
m279 -8 c3 -12 8 -19 12 -18 57 30 63 31 91 21 20 -8 42 -8 67 -1 48 12 90 -3
98 -34 3 -13 12 -68 19 -123 14 -110 8 -138 -27 -133 -18 2 -23 11 -25 48 -2
25 -7 49 -13 55 -5 5 -9 24 -9 41 0 18 -4 45 -10 59 -9 25 -11 25 -32 10 -21
-14 -23 -23 -23 -118 0 -100 0 -102 -24 -105 -13 -2 -27 2 -31 8 -4 7 -11 59
-15 116 -4 57 -10 104 -14 104 -4 0 -18 -11 -31 -25 -20 -21 -24 -36 -25 -97
-1 -61 -5 -74 -22 -85 -19 -13 -23 -12 -36 9 -12 18 -14 51 -12 143 1 66 3
126 4 133 2 21 52 14 58 -8z m1585 -11 c13 -7 18 -28 21 -106 3 -54 8 -112 12
-129 8 -36 -13 -52 -45 -32 -13 9 -28 9 -52 1 -77 -23 -139 16 -153 96 -22
129 104 227 217 170z m-1014 -113 c3 -126 -4 -149 -42 -144 -27 4 -37 62 -30
168 7 98 9 102 41 98 l28 -3 3 -119z m-909 -320 c16 -15 18 -22 10 -33 -7 -8
-9 -32 -6 -59 4 -40 2 -47 -14 -51 -10 -3 -16 -9 -13 -14 3 -5 9 -7 14 -4 15
9 22 -36 14 -94 -4 -31 -6 -71 -5 -89 2 -28 0 -33 -16 -30 -10 2 -24 15 -31
30 -12 25 -47 46 -59 35 -12 -12 -14 -244 -3 -287 6 -25 16 -65 21 -89 11 -54
48 -133 59 -126 4 2 11 33 14 67 4 35 12 68 16 73 12 15 33 152 25 165 -3 5 1
39 10 75 9 36 14 73 11 82 -4 9 -4 24 0 35 4 15 9 17 20 7 8 -6 14 -8 14 -3 1
79 12 177 22 204 31 85 127 162 114 93 -15 -83 -16 -103 -6 -103 5 0 10 -17
10 -37 0 -21 5 -45 10 -53 14 -22 39 45 50 137 6 42 12 79 16 82 3 3 94 6 203
6 150 0 202 -3 214 -13 9 -8 24 -12 34 -11 10 1 25 -1 33 -4 8 -3 60 -8 115
-12 55 -3 114 -8 130 -10 17 -3 56 -8 88 -11 49 -5 60 -10 67 -29 5 -13 14
-25 21 -27 7 -2 13 -25 13 -59 1 -29 4 -59 8 -64 3 -6 4 -31 1 -57 -4 -38 -9
-47 -27 -50 -16 -2 -22 -11 -24 -38 -4 -43 -24 -67 -63 -75 -36 -8 -99 -66
-99 -91 0 -22 -52 -49 -75 -40 -8 3 -15 1 -15 -5 0 -6 -4 -8 -9 -4 -12 7 -51
-34 -51 -53 0 -11 7 -13 28 -8 15 4 47 9 72 13 25 3 54 12 65 19 11 8 43 14
72 14 40 0 53 4 53 15 0 10 -10 15 -34 15 -19 0 -37 4 -41 9 -10 17 67 -1 109
-25 23 -13 35 -24 29 -24 -7 0 -13 -7 -13 -15 0 -10 10 -15 27 -15 49 0 14
-13 -44 -16 -31 -2 -77 -10 -102 -19 -25 -8 -70 -19 -100 -25 -30 -6 -62 -16
-70 -24 -9 -8 -35 -17 -58 -21 -24 -4 -45 -11 -49 -16 -9 -15 -56 -10 -75 7
-18 16 -31 11 -88 -33 -4 -3 -12 -82 -12 -126 0 -16 -9 -41 -21 -57 -14 -20
-19 -38 -16 -60 3 -21 0 -34 -9 -37 -7 -3 -13 -11 -13 -18 0 -7 -6 -26 -14
-42 -8 -15 -20 -48 -27 -73 -6 -25 -20 -63 -29 -85 -25 -55 -34 -180 -14 -196
8 -6 14 -20 14 -30 0 -22 32 -44 76 -53 30 -7 31 -7 26 -61 -5 -61 16 -108 46
-103 10 2 18 -5 20 -17 3 -11 15 -33 28 -48 37 -43 20 -63 -60 -72 -72 -7
-170 1 -201 18 -11 6 -24 11 -30 12 -16 0 -59 27 -71 43 -20 27 -51 -2 -64
-61 -11 -46 -9 -68 14 -184 14 -73 31 -144 36 -157 12 -33 79 -106 96 -106 26
0 15 29 -12 32 -21 2 -30 13 -45 52 -13 35 -15 54 -8 67 5 11 13 19 17 19 4
-1 27 -21 52 -46 25 -24 56 -47 70 -51 14 -3 34 -12 45 -19 26 -17 108 -10
137 10 12 9 33 16 46 16 12 0 25 7 28 15 4 8 17 15 29 15 13 0 26 4 29 9 3 4
23 11 45 15 37 6 42 10 75 77 41 82 44 106 16 142 -25 31 -25 37 -2 37 9 0 28
-16 41 -35 13 -19 27 -35 32 -35 30 0 -46 -152 -111 -220 -57 -60 -159 -129
-235 -160 -51 -21 -56 -25 -41 -36 10 -7 31 -11 47 -9 27 4 49 -15 49 -43 0
-15 -46 -31 -61 -21 -24 15 -95 11 -110 -7 -7 -8 -30 -25 -52 -36 -41 -20
-111 -21 -185 -2 -42 12 -114 83 -137 137 -10 23 -24 56 -31 73 -8 18 -25 87
-39 155 -38 192 -66 289 -83 289 -5 0 -16 -8 -24 -17 -64 -71 -88 -93 -102
-93 -10 0 -16 -9 -16 -22 -1 -21 -2 -21 -11 -5 -15 26 -64 48 -77 35 -7 -7
-14 -4 -21 11 -7 12 -18 21 -26 21 -8 0 -15 7 -15 15 0 8 -8 15 -17 15 -27 1
-66 40 -87 87 -10 23 -27 50 -37 59 -11 10 -19 25 -19 35 0 10 -4 20 -10 24
-5 3 -21 32 -36 65 -29 65 -52 80 -86 56 -12 -9 -35 -16 -51 -16 -45 0 -76 79
-88 222 -21 262 -28 424 -34 788 -3 212 -8 431 -11 487 l-5 102 38 3 c21 2
185 4 364 3 307 0 328 -1 348 -19z m247 -34 c-12 -11 -18 7 -10 30 l8 23 4
-23 c2 -13 1 -26 -2 -30z m1204 -169 c0 -24 -3 -33 -8 -25 -5 7 -7 23 -6 35 3
27 3 27 9 27 3 0 5 -17 5 -37z m6 -54 c3 -6 2 -15 -3 -20 -5 -5 -14 0 -21 11
-10 17 -10 20 2 20 8 0 18 -5 22 -11z m-326 -562 c0 -8 -6 -14 -12 -15 -7 -1
-25 -4 -40 -8 -34 -8 -104 4 -92 16 22 21 144 26 144 7z m-140 -77 c0 -5 7
-10 15 -10 9 0 15 -9 15 -25 0 -26 -24 -35 -34 -12 -5 10 -7 10 -12 0 -3 -7
-10 -13 -15 -13 -10 0 -12 53 -2 63 10 11 33 8 33 -3z m25 -111 c5 -6 5 -13
-2 -20 -8 -8 -17 -6 -32 7 -11 10 -21 22 -21 27 0 10 40 -1 55 -14z m255 -188
c0 -10 -7 -22 -16 -25 -11 -4 -13 -13 -9 -27 7 -20 5 -21 -28 -15 -25 5 -38 2
-48 -10 -12 -14 -14 -13 -22 8 l-9 23 -11 -22 c-11 -26 -33 -29 -59 -9 -21 16
-13 26 21 26 29 1 61 21 61 39 0 6 15 11 34 11 19 0 38 5 41 10 11 18 45 11
45 -9z m-122 -112 c-2 -6 -8 -10 -13 -10 -5 0 -11 4 -13 10 -2 6 4 11 13 11 9
0 15 -5 13 -11z m699 -50 c-13 -33 -27 -38 -27 -10 0 31 11 50 25 45 10 -4 10
-12 2 -35z m92 -95 c-7 -9 -8 -14 -1 -14 6 0 4 -12 -5 -31 -8 -16 -20 -28 -26
-26 -19 6 -20 57 -2 77 20 22 52 16 34 -6z m-834 -130 c23 -15 25 -44 2 -44
-13 0 -57 40 -57 52 0 13 29 9 55 -8z m-335 -244 c0 -5 -5 -10 -11 -10 -5 0
-7 5 -4 10 3 6 8 10 11 10 2 0 4 -4 4 -10z m45 0 c3 -5 -1 -10 -9 -10 -9 0
-16 5 -16 10 0 6 4 10 9 10 6 0 13 -4 16 -10z m-265 -110 c17 -22 38 -40 46
-40 8 0 14 -9 14 -19 0 -47 52 -28 75 27 9 21 21 32 34 32 12 0 21 4 21 9 0
16 88 25 105 11 41 -34 -16 -148 -68 -136 -17 4 -39 -13 -130 -101 -20 -19
-31 -23 -39 -15 -7 7 -28 9 -52 6 -37 -5 -45 -2 -81 33 -70 68 -103 163 -72
204 16 21 34 27 79 28 31 1 41 -5 68 -39z m625 -7 c-4 -25 -8 -83 -11 -127 -4
-97 -26 -183 -51 -201 -16 -12 -19 -10 -24 28 -12 84 27 312 57 334 30 22 37
15 29 -34z m645 -82 c0 -37 -19 -69 -134 -222 -63 -85 -126 -170 -141 -189
-14 -19 -49 -67 -78 -106 -60 -83 -161 -174 -191 -174 -12 0 -31 -3 -43 -6
-19 -5 -23 -2 -23 15 0 12 7 24 15 27 8 4 15 11 15 17 0 6 54 65 119 131 66
67 135 140 153 163 18 23 63 79 100 125 37 45 94 118 128 161 61 79 80 92 80
58z m-750 -51 c0 -5 -4 -10 -10 -10 -5 0 -10 5 -10 10 0 6 5 10 10 10 6 0 10
-4 10 -10z m790 -140 c0 -23 -4 -30 -20 -30 -16 0 -20 7 -20 30 0 23 4 30 20
30 16 0 20 -7 20 -30z m-73 -22 c-3 -8 -6 -5 -6 6 -1 11 2 17 5 13 3 -3 4 -12
1 -19z m716 -639 c80 -20 117 -70 117 -159 l0 -60 -75 0 -75 0 0 48 c0 48 -13
82 -26 69 -4 -3 -9 -40 -12 -82 l-5 -75 97 0 96 0 0 -155 0 -155 -40 0 c-22 0
-49 5 -59 12 -14 9 -23 8 -42 -5 -49 -35 -129 -12 -175 49 l-29 37 0 194 0
193 41 41 c54 54 109 68 187 48z m-2729 -32 c3 -18 10 -77 16 -131 6 -55 12
-102 14 -103 2 -2 6 43 10 99 4 57 10 118 13 136 l5 32 77 0 c47 0 82 -5 89
-12 9 -9 12 -9 12 0 0 9 33 12 120 12 117 0 120 0 126 -23 3 -13 4 -41 2 -63
-3 -39 -3 -39 -50 -42 l-48 -3 0 -45 0 -44 45 0 45 0 0 -55 0 -55 -45 0 -45 0
0 -55 0 -55 50 0 51 0 -3 -62 -3 -63 -125 0 -125 0 -5 270 c-3 149 -8 257 -12
240 -4 -16 -19 -124 -33 -240 -14 -116 -27 -225 -30 -243 l-6 -32 -109 0 c-60
0 -111 4 -114 9 -6 8 -24 118 -66 391 -12 81 -18 105 -21 80 -4 -34 -5 -35
-51 -38 l-48 -3 0 -45 0 -44 45 0 45 0 0 -55 0 -55 -45 0 -45 0 0 -55 0 -55
49 0 c55 0 61 -7 61 -76 0 -54 -5 -56 -155 -52 l-110 3 -3 270 c-1 148 0 275
2 282 4 10 55 13 210 13 l205 -1 5 -32z m691 22 c-14 -6 -4 -7 31 -3 47 5 55
3 84 -23 36 -32 55 -102 44 -163 -8 -41 -20 -59 -49 -70 -14 -6 -16 -9 -4 -9
9 -1 24 -10 34 -21 16 -17 20 -42 23 -140 l4 -119 -24 -6 c-13 -3 -47 -5 -74
-3 l-49 3 -3 115 c-2 76 -7 117 -15 122 -9 5 -13 -22 -17 -115 l-5 -122 -75 0
-75 0 -3 270 c-1 148 0 275 3 282 3 9 31 13 97 12 65 0 87 -3 73 -10z m324
-46 c6 -31 11 -68 12 -82 l1 -26 8 25 c5 14 14 51 20 83 l11 57 230 0 229 0 0
-65 0 -65 -45 0 -45 0 -2 -217 -3 -218 -70 0 -70 0 -3 218 -2 217 -40 0 c-38
0 -40 1 -40 32 0 51 -12 25 -52 -115 -32 -115 -37 -146 -38 -239 0 -123 0
-122 -96 -116 l-49 3 -5 105 c-5 85 -14 135 -53 268 -26 89 -47 169 -47 177 0
12 15 15 69 15 l68 0 12 -57z m689 -50 c3 -129 22 -137 22 -10 0 50 4 98 9
105 5 9 28 12 77 10 l69 -3 0 -280 0 -280 -75 0 -75 0 0 118 c0 97 -3 117 -15
117 -13 0 -15 -18 -12 -115 4 -132 6 -129 -99 -123 l-54 3 -3 283 -2 283 77
-3 78 -3 3 -102z m377 85 c3 -13 4 -140 3 -283 l-3 -260 -75 0 -75 0 -3 270
c-1 148 0 275 3 282 3 9 27 13 74 13 65 0 71 -2 76 -22z m211 -78 l32 -95 3
95 4 95 59 3 c41 2 62 -1 67 -10 11 -17 11 -529 0 -546 -5 -9 -27 -12 -72 -10
l-64 3 -25 90 -25 90 -3 -85 c-2 -52 -8 -87 -15 -92 -7 -4 -36 -8 -64 -8 l-53
0 0 285 0 286 63 -3 62 -3 31 -95z"/>
<path d="M1428 4084 c-25 -13 -28 -20 -28 -69 0 -49 2 -55 24 -61 32 -8 64 11
72 41 9 36 -4 92 -22 99 -19 7 -13 8 -46 -10z"/>
<path d="M3165 4100 c-35 -13 -57 -47 -59 -88 -1 -45 17 -72 48 -72 36 0 46
20 46 91 0 73 -4 81 -35 69z"/>
<path d="M1260 3614 c0 -26 3 -45 6 -42 9 10 12 78 3 84 -5 3 -9 -16 -9 -42z"/>
<path d="M1622 3004 c10 -10 20 -15 24 -12 3 4 -5 12 -18 18 -22 12 -22 12 -6
-6z"/>
<path d="M1520 2931 c-12 -8 -8 -11 19 -11 42 0 60 -23 54 -69 -5 -50 9 -70
38 -53 14 9 24 10 28 4 6 -11 93 -8 111 3 18 11 11 23 -37 75 -48 50 -48 50
-123 56 -45 3 -81 1 -90 -5z m156 -97 c-8 -21 -11 -17 -20 21 -7 28 -6 29 10
13 10 -10 14 -23 10 -34z"/>
<path d="M1570 2332 c-24 -26 -49 -73 -85 -156 -18 -43 -33 -192 -17 -166 5 8
13 31 17 50 12 60 57 163 86 200 28 35 50 100 33 100 -5 0 -20 -13 -34 -28z"/>
<path d="M1785 2101 c-8 -15 3 -31 21 -31 9 0 14 7 12 17 -4 20 -24 28 -33 14z"/>
<path d="M1755 2078 c-4 -10 -4 -26 0 -35 8 -17 8 -17 12 0 3 9 3 25 0 35 -4
16 -4 16 -12 0z"/>
<path d="M1785 2010 c4 -6 11 -8 16 -5 14 9 11 15 -7 15 -8 0 -12 -5 -9 -10z"/>
<path d="M1996 1433 c-13 -13 -6 -42 9 -37 16 7 20 30 6 38 -4 3 -11 3 -15 -1z"/>
<path d="M1911 1407 c-13 -16 -5 -27 21 -27 20 0 21 1 12 24 -7 20 -18 20 -33
3z"/>
<path d="M3763 434 c6 -61 10 -69 26 -59 18 10 14 102 -5 109 -26 10 -27 8
-21 -50z"/>
<path d="M1780 675 c0 -41 3 -56 13 -53 19 7 21 82 2 98 -13 11 -15 6 -15 -45z"/>
<path d="M223 1763 c9 -2 25 -2 35 0 9 3 1 5 -18 5 -19 0 -27 -2 -17 -5z"/>
</g>
</svg>
